<!DOCTYPE svg PUBLIC "-//W3C//DTD SVG 1.1//EN" "http://www.w3.org/Graphics/SVG/1.1/DTD/svg11.dtd">
<!-- Uploaded to: SVG Repo, www.svgrepo.com, Transformed by: SVG Repo Mixer Tools -->
<svg fill="#b56bff" version="1.1" id="Capa_1" xmlns="http://www.w3.org/2000/svg" xmlns:xlink="http://www.w3.org/1999/xlink" width="800px" height="800px" viewBox="0 0 391.984 391.984" xml:space="preserve">
<g id="SVGRepo_bgCarrier" stroke-width="0"/>
<g id="SVGRepo_tracerCarrier" stroke-linecap="round" stroke-linejoin="round"/>
<g id="SVGRepo_iconCarrier"> <g> <g> <path d="M306.791,208.701h-79.906c-2.339,0-4.252,1.914-4.252,4.252v8.74c0,2.338,1.913,4.252,4.252,4.252h79.906 c2.34,0,4.252-1.914,4.252-4.252v-8.74C311.043,210.615,309.131,208.701,306.791,208.701z"/> <path d="M236.047,158.343v-8.739c0-2.339-1.912-4.252-4.252-4.252H42.098c-2.339,0-4.252,1.913-4.252,4.252v8.739 c0,2.339,1.913,4.252,4.252,4.252h189.697C234.135,162.595,236.047,160.681,236.047,158.343z"/> <path d="M306.791,272.051H117.094c-2.339,0-4.252,1.913-4.252,4.252v8.739c0,2.339,1.913,4.252,4.252,4.252h189.697 c2.34,0,4.252-1.913,4.252-4.252v-8.739C311.043,273.964,309.131,272.051,306.791,272.051z"/> <path d="M368.701,31.839H23.283C10.445,31.839,0,42.284,0,55.123v281.738c0,12.84,10.445,23.284,23.283,23.284h345.418 c12.84,0,23.283-10.444,23.283-23.284V55.123C391.984,42.284,381.541,31.839,368.701,31.839z M161.152,61.149 c0-2.923,2.393-5.315,5.314-5.315h31.871c2.923,0,5.313,2.392,5.313,5.315v9.994c0,2.923-2.393,5.315-5.313,5.315h-31.871 c-2.922,0-5.314-2.392-5.314-5.315V61.149z M95.716,61.149c0-2.923,2.393-5.315,5.314-5.315h31.869 c2.924,0,5.314,2.392,5.314,5.315v9.994c0,2.923-2.391,5.315-5.314,5.315H101.03c-2.922,0-5.314-2.392-5.314-5.315V61.149z M31.937,61.149c0-2.923,2.393-5.315,5.314-5.315H69.12c2.924,0,5.314,2.392,5.314,5.315v9.994c0,2.923-2.391,5.315-5.314,5.315 H37.251c-2.922,0-5.314-2.392-5.314-5.315V61.149z M373.357,333.796c0,3.064-2.533,5.572-5.625,5.572H24.253 c-3.094,0-5.625-2.508-5.625-5.572V101.668c0-3.065,2.531-5.573,5.625-5.573h343.479c3.092,0,5.625,2.508,5.625,5.573V333.796z"/> </g> </g> </g>
</svg>